<?xml version="1.0" standalone="no"?>
<!DOCTYPE svg PUBLIC "-//W3C//DTD SVG 20010904//EN"
 "http://www.w3.org/TR/2001/REC-SVG-20010904/DTD/svg10.dtd">
<svg version="1.0" xmlns="http://www.w3.org/2000/svg"
 width="1280.000000pt" height="930.000000pt" viewBox="0 0 1280.000000 930.000000"
 preserveAspectRatio="xMidYMid meet">
<g transform="translate(0.000000,930.000000) scale(0.100000,-0.100000)"
fill="#000000" stroke="none">
<path d="M4865 9279 c-262 -45 -443 -131 -651 -310 -165 -141 -338 -374 -469
-633 -62 -123 -75 -159 -103 -282 -70 -312 -102 -599 -102 -918 0 -229 8 -315
64 -661 19 -121 38 -242 41 -270 17 -146 29 -154 38 -24 10 137 41 271 117
503 37 116 85 265 105 331 136 443 342 842 545 1058 166 177 353 277 519 277
117 0 303 -73 458 -179 96 -65 374 -297 566 -472 262 -239 373 -298 594 -320
117 -11 212 0 273 31 79 41 171 182 200 310 16 65 15 192 0 252 -67 263 -290
558 -590 782 -292 217 -713 416 -1040 490 -112 26 -330 56 -394 55 -34 -1
-110 -10 -171 -20z"/>
<path d="M8526 8939 c-99 -13 -268 -72 -361 -126 -181 -104 -301 -232 -391
-418 -77 -158 -89 -211 -88 -385 1 -127 4 -156 28 -234 120 -397 432 -653 850
-696 290 -30 594 77 797 279 170 170 282 430 280 651 -1 227 -116 490 -287
655 -128 124 -314 222 -491 259 -92 20 -253 27 -337 15z"/>
<path d="M11795 7283 c-27 -162 -196 -499 -393 -782 -154 -222 -337 -404 -663
-664 -215 -170 -478 -322 -601 -347 -140 -28 -280 39 -444 213 -108 114 -146
187 -259 487 -132 355 -211 499 -334 613 -97 89 -248 148 -343 133 -94 -15
-212 -107 -291 -226 -114 -171 -147 -454 -83 -700 127 -487 423 -915 841
-1215 112 -80 226 -138 330 -167 69 -19 104 -22 260 -22 162 0 190 3 277 27
372 100 808 393 1113 749 174 203 282 375 417 663 215 458 286 725 267 1000
-4 61 -8 147 -8 193 l-1 82 -40 0 c-37 0 -39 -2 -45 -37z"/>
<path d="M4400 5700 c-124 -20 -216 -65 -281 -138 -47 -52 -99 -159 -120 -242
-21 -84 -16 -249 10 -349 45 -173 118 -274 336 -468 72 -64 131 -122 133 -130
9 -34 -687 -757 -1462 -1518 -247 -242 -483 -477 -525 -522 -306 -328 -1025
-1063 -1247 -1274 -292 -279 -480 -467 -473 -474 3 -2 41 5 84 16 139 36 549
266 1375 772 478 294 720 439 895 540 259 149 1139 669 1285 760 329 205 565
371 750 529 49 42 152 121 227 174 76 54 175 126 221 161 45 35 90 63 100 63
23 0 215 -107 308 -171 39 -28 99 -76 132 -107 58 -55 60 -59 67 -120 7 -58 5
-66 -20 -105 -47 -71 -195 -211 -286 -271 -48 -30 -214 -122 -370 -202 -156
-80 -367 -190 -469 -244 -486 -257 -751 -384 -1253 -600 -108 -47 -252 -130
-252 -145 0 -29 292 -32 606 -5 404 35 659 74 854 130 39 11 252 70 475 130
803 216 1065 323 1389 565 120 90 284 250 351 342 67 93 137 218 171 308 31
78 31 82 21 165 -13 104 -40 188 -99 300 -121 232 -555 724 -888 1005 -71 61
-164 143 -207 182 -272 252 -722 580 -953 695 -130 65 -484 206 -574 228 -91
23 -235 32 -311 20z"/>
<path d="M12620 2159 c-63 -10 -414 -64 -780 -119 -366 -55 -753 -114 -860
-130 -107 -16 -494 -75 -860 -130 -366 -55 -903 -137 -1195 -181 -741 -112
-1099 -166 -1715 -259 -294 -45 -830 -126 -1190 -180 -360 -54 -896 -135
-1190 -180 -294 -44 -652 -98 -795 -120 -278 -42 -1241 -188 -2115 -320 -294
-44 -652 -98 -795 -120 -143 -22 -440 -67 -660 -100 -220 -33 -415 -62 -433
-65 l-34 -6 5 -57 c2 -31 10 -88 17 -125 l13 -69 56 5 c31 2 126 16 211 31 85
14 454 71 820 126 366 55 782 118 925 140 143 22 501 76 795 120 294 45 830
126 1190 180 360 54 896 135 1190 180 294 44 652 98 795 120 248 38 952 144
2115 320 616 93 974 147 1715 259 292 44 829 126 1195 181 366 55 753 114 860
130 605 92 861 130 880 130 20 0 21 4 17 63 -8 99 -30 192 -47 193 -8 1 -67
-7 -130 -17z"/>
</g>
</svg>
